<?xml version="1.0" encoding="UTF-8" standalone="no"?>
<svg
   xmlns:dc="http://purl.org/dc/elements/1.1/"
   xmlns:cc="http://creativecommons.org/ns#"
   xmlns:rdf="http://www.w3.org/1999/02/22-rdf-syntax-ns#"
   xmlns:svg="http://www.w3.org/2000/svg"
   xmlns="http://www.w3.org/2000/svg"
   id="svg38"
   xml:space="preserve"
   viewBox="0 0 460 102"
   height="102"
   width="460"
   version="1.1"><metadata
     id="metadata42"><rdf:RDF><cc:Work
         rdf:about=""><dc:format>image/svg+xml</dc:format><dc:type
           rdf:resource="http://purl.org/dc/dcmitype/StillImage" /></cc:Work></rdf:RDF></metadata><desc
     id="desc2">Created with Fabric.js 2.4.6</desc><defs
     id="defs4" /><g
     id="g30"
     transform="translate(52.26,51.39)"><g
       id="g8"
       transform="matrix(1.11,0,0,1.11,31.62,2.62)"><path
         id="path6"
         d="m -787.9,500.6 c -5.5,-4.4 -13.7,-8.6 -23,-11.8 -1,-0.3 -2.1,0.2 -2.4,1.2 -0.3,1 0.2,2.1 1.2,2.4 8.9,3.1 16.7,7 21.8,11.2 4.8,3.9 7,7.6 6.3,10.4 -0.6,2.4 -3.4,4.4 -7.9,5.6 -1,0.3 -1.6,1.3 -1.3,2.4 0.2,0.9 1,1.4 1.8,1.4 0.2,0 0.3,0 0.5,-0.1 4.2,-1.1 9.4,-3.5 10.6,-8.4 0.8,-3.1 0.1,-8.1 -7.6,-14.3 z"
         transform="translate(796.72,-506.06)"
         style="opacity:1;fill:#393939;fill-rule:nonzero;stroke:none;stroke-width:1;stroke-linecap:butt;stroke-linejoin:miter;stroke-miterlimit:4;stroke-dasharray:none;stroke-dashoffset:0" /></g><g
       id="g12"
       transform="matrix(1.11,0,0,1.11,-39.21,-10.52)"><path
         id="path10"
         d="m -866.6,493.3 c 0.4,-1.6 1.7,-3 4,-4.1 2.4,-1.2 5.8,-2.1 9.9,-2.6 1.1,-0.1 1.8,-1.1 1.7,-2.1 -0.1,-1.1 -1.1,-1.8 -2.1,-1.7 -4.6,0.5 -8.3,1.5 -11.2,3 -3.3,1.7 -5.3,3.9 -5.9,6.6 -1.2,5 2.4,9.6 5.7,12.7 0.4,0.3 0.8,0.5 1.3,0.5 0.5,0 1,-0.2 1.4,-0.6 0.7,-0.8 0.7,-2 -0.1,-2.7 -2.2,-1.9 -5.5,-5.6 -4.7,-9 z"
         transform="translate(860.71,-494.2)"
         style="opacity:1;fill:#393939;fill-rule:nonzero;stroke:none;stroke-width:1;stroke-linecap:butt;stroke-linejoin:miter;stroke-miterlimit:4;stroke-dasharray:none;stroke-dashoffset:0" /></g><g
       id="g16"
       transform="matrix(1.11,0,0,1.11,0.06,0.17)"><path
         id="path14"
         d="m -807.7,498.2 c -0.3,-1 -1.4,-1.6 -2.4,-1.3 -1,0.3 -1.6,1.4 -1.3,2.4 0.2,0.7 0.4,1.4 0.7,2.2 3.1,10.7 4.5,21.2 4,29.4 -0.5,7.5 -2.6,12.4 -5.9,13.4 -1.6,0.5 -3.5,0.1 -5.6,-1.2 -2.3,-1.4 -4.8,-3.9 -7.3,-7.1 -5.3,-6.9 -10.2,-16.8 -13.7,-28 -0.8,-2.6 -1.5,-5.3 -2.2,-7.8 1.6,-2.1 3.4,-4.2 5.2,-6.2 7.8,-8.7 16.3,-15.7 24.1,-19.7 3.6,-1.9 6.9,-3.1 9.6,-3.4 2.5,-0.3 4.4,0.1 5.6,1.2 1.2,1.1 1.8,2.9 1.8,5.4 0,2.7 -0.8,6.1 -2.3,9.9 -0.4,1 0.1,2.1 1.1,2.5 1,0.4 2.1,-0.1 2.5,-1.1 1.7,-4.3 2.6,-8.1 2.6,-11.3 0,-3.7 -1,-6.5 -3.1,-8.3 -2.1,-1.9 -5,-2.6 -8.6,-2.2 -3.2,0.4 -6.9,1.7 -10.9,3.8 -8.1,4.3 -17.1,11.6 -25.1,20.6 -1.2,1.3 -2.3,2.6 -3.4,4 -1.2,-6.6 -1.8,-12.7 -1.5,-18.1 0.2,-4.1 0.9,-7.5 2,-10 1,-2.3 2.3,-3.7 3.9,-4.2 3.3,-1 7.1,2.1 9.2,4.1 0.8,0.7 2,0.7 2.7,-0.1 0.7,-0.8 0.7,-2 -0.1,-2.7 -5.8,-5.6 -10.3,-5.8 -13,-4.9 -2.7,0.8 -4.8,3 -6.3,6.3 -1.3,2.9 -2.1,6.8 -2.3,11.3 -0.3,6.5 0.4,14.2 2.2,22.2 -5,6.6 -8.9,13.2 -11.3,19.3 -1.7,4.3 -2.6,8.1 -2.6,11.3 0,3.7 1,6.5 3.1,8.3 1.3,1.2 3.4,2.3 6.7,2.3 2,0 4.5,-0.4 7.5,-1.5 1,-0.4 1.5,-1.5 1.2,-2.5 -0.4,-1 -1.5,-1.5 -2.5,-1.2 -4.7,1.7 -8.4,1.7 -10.3,0 -1.2,-1.1 -1.8,-2.9 -1.8,-5.4 0,-2.7 0.8,-6.1 2.3,-9.9 2,-5 5,-10.4 8.9,-15.8 0.4,1.7 0.9,3.3 1.5,5 3.6,11.5 8.7,21.9 14.3,29.2 2.8,3.6 5.6,6.3 8.4,8 2.2,1.3 4.3,2 6.2,2 0.9,0 1.7,-0.1 2.5,-0.4 2.6,-0.8 4.7,-2.8 6.1,-6 1.3,-2.8 2.1,-6.4 2.4,-10.8 0.6,-8.7 -0.9,-19.6 -4.1,-30.7 -0.3,-0.8 -0.5,-1.6 -0.7,-2.3 z"
         transform="translate(825.3,-503.75)"
         style="opacity:1;fill:#393939;fill-rule:nonzero;stroke:none;stroke-width:1;stroke-linecap:butt;stroke-linejoin:miter;stroke-miterlimit:4;stroke-dasharray:none;stroke-dashoffset:0" /></g><g
       id="g20"
       transform="matrix(1.11,0,0,1.11,-7.58,1.61)"><path
         id="circle18"
         d="M 1.7,0 A 1.7,1.7 0 0 1 0,1.7 1.7,1.7 0 0 1 -1.7,0 1.7,1.7 0 0 1 0,-1.7 1.7,1.7 0 0 1 1.7,0 Z"
         style="opacity:1;fill:#393939;fill-rule:nonzero;stroke:none;stroke-width:1;stroke-linecap:butt;stroke-linejoin:miter;stroke-miterlimit:4;stroke-dasharray:none;stroke-dashoffset:0" /></g><g
       id="g24"
       transform="matrix(1.11,0,0,1.11,3.59,-6.02)"><path
         id="circle22"
         d="M 1.9,0 A 1.9,1.9 0 0 1 0,1.9 1.9,1.9 0 0 1 -1.9,0 1.9,1.9 0 0 1 0,-1.9 1.9,1.9 0 0 1 1.9,0 Z"
         style="opacity:1;fill:#393939;fill-rule:nonzero;stroke:none;stroke-width:1;stroke-linecap:butt;stroke-linejoin:miter;stroke-miterlimit:4;stroke-dasharray:none;stroke-dashoffset:0" /></g><g
       id="g28"
       transform="matrix(1.11,0,0,1.11,3.59,6.93)"><path
         id="circle26"
         d="M 2.8,0 A 2.8,2.8 0 0 1 0,2.8 2.8,2.8 0 0 1 -2.8,0 2.8,2.8 0 0 1 0,-2.8 2.8,2.8 0 0 1 2.8,0 Z"
         style="opacity:1;fill:#393939;fill-rule:nonzero;stroke:none;stroke-width:1;stroke-linecap:butt;stroke-linejoin:miter;stroke-miterlimit:4;stroke-dasharray:none;stroke-dashoffset:0" /></g></g><g
     id="g36"
     transform="translate(288.95,51.38)"><g
       id="text34"
       style="font-style:normal;font-weight:normal;font-size:95px;font-family:'Major Mono Display';white-space:pre;opacity:1;fill:#393939;fill-rule:nonzero;stroke:none;stroke-width:1;stroke-linecap:butt;stroke-linejoin:miter;stroke-miterlimit:4;stroke-dasharray:none;stroke-dashoffset:0"
       aria-label="quArk"><path
         id="path47"
         style=""
         d="m -113.145,30.695 -2.565,2.28 -7.41,-8.455 q -3.61,3.23 -8.17,4.94 -4.465,1.71 -9.5,1.71 -7.41,0 -13.68,-3.61 -6.27,-3.705 -9.975,-9.975 -3.61,-6.27 -3.61,-13.6799998 V -10.535 q 0,-7.41 3.61,-13.68 3.705,-6.27 9.975,-9.88 6.27,-3.705 13.68,-3.705 7.41,0 13.68,3.705 6.27,3.61 9.88,9.88 3.705,6.27 3.705,13.68 V 3.9050002 q 0,5.13 -1.9,9.8799998 -1.805,4.655 -5.13,8.36 z m -3.895,-41.23 q 0,-6.46 -3.23,-11.875 -3.135,-5.51 -8.645,-8.645 -5.415,-3.23 -11.875,-3.23 -6.46,0 -11.97,3.23 -5.415,3.135 -8.645,8.645 -3.23,5.415 -3.23,11.875 V 3.9050002 q 0,6.4599998 3.23,11.9699998 3.23,5.415 8.645,8.645 5.51,3.135 11.97,3.135 4.275,0 8.17,-1.425 3.99,-1.52 7.22,-4.275 l -9.975,-11.4 2.66,-2.2799998 9.785,11.2099998 q 2.755,-3.23 4.275,-7.22 1.615,-3.9899998 1.615,-8.3599998 z" /><path
         id="path49"
         style=""
         d="m -96.972734,-36.28 h 3.515 V 4.5700002 q 0,6.2699998 3.135,11.5899998 3.135,5.32 8.455,8.455 5.32,3.135 11.59,3.135 6.27,0 11.59,-3.135 5.32,-3.135 8.455,-8.455 3.135,-5.32 3.135,-11.5899998 V -36.28 h 3.515 V 4.5700002 q 0,7.2199998 -3.61,13.3949998 -3.61,6.08 -9.785,9.69 -6.08,3.61 -13.3,3.61 -7.22,0 -13.395,-3.61 -6.08,-3.61 -9.69,-9.69 -3.61,-6.175 -3.61,-13.3949998 z" /><path
         id="path51"
         style=""
         d="m 31.204531,29.84 h -62.32 L 0.04453125,-37.705 Z m -56.81,-3.515 h 51.3 L 0.04453125,-29.345 Z" /><path
         id="path53"
         style=""
         d="m 84.711797,-34.095 q 5.7,2.66 8.93,7.885 3.325,5.225 3.325,11.59 0,7.4100002 -4.56,13.3000002 -4.465,5.795 -11.495,7.695 L 97.726797,29.84 h -4.18 l -16.245,-22.7999998 -3.04,0.095 h -23.845 V 29.84 h -3.515 v -66.12 h 25.175 q 4.18,0 7.125,0.57 3.04,0.475 5.51,1.615 z m -9.5,37.7150002 q 4.94,0 9.12,-2.47 4.18,-2.47 6.65,-6.65 2.47,-4.18 2.47,-9.1200002 0,-5.51 -2.945,-9.975 -2.85,-4.465 -7.98,-6.65 -3.705,-1.52 -10.45,-1.52 h -21.66 V 3.6200002 Z" /><path
         id="path55"
         style=""
         d="M 119.50406,-36.28 V 8.4650002 L 164.34406,-36.28 h 4.94 l -27.645,27.5500002 27.55,38.5699998 h -4.18 L 139.16906,-6.2599998 119.50406,13.405 V 29.84 h -3.515 v -66.12 z" /></g></g></svg>